HIERARCHY
ROOT Hips
{
	OFFSET -0.001795 -0.223333 0.028219
	CHANNELS 6 Xposition Yposition Zposition Zrotation Yrotation Xrotation 
	JOINT LeftUpLeg
	{
		OFFSET 0.069520 -0.091406 -0.006815
		CHANNELS 3 Zrotation Yrotation Xrotation
		JOINT LeftLeg
		{
			OFFSET 0.034277 -0.375199 -0.004496
			CHANNELS 3 Zrotation Yrotation Xrotation
			JOINT LeftFoot
			{
				OFFSET -0.013596 -0.397961 -0.043693
				CHANNELS 3 Zrotation Yrotation Xrotation
				JOINT LeftToe
				{
					OFFSET 0.026358 -0.055791 0.119288
					CHANNELS 3 Zrotation Yrotation Xrotation
					End Site
					{
						OFFSET 0.000000 0.000000 0.000000
					}
				}
			}
		}
	}
	JOINT RightUpLeg
	{
		OFFSET -0.067670 -0.090522 -0.004320
		CHANNELS 3 Zrotation Yrotation Xrotation
		JOINT RightLeg
		{
			OFFSET -0.038290 -0.382569 -0.008850
			CHANNELS 3 Zrotation Yrotation Xrotation
			JOINT RightFoot
			{
				OFFSET 0.015774 -0.398415 -0.042312
				CHANNELS 3 Zrotation Yrotation Xrotation
				JOINT RightToe
				{
					OFFSET -0.025372 -0.048144 0.123348
					CHANNELS 3 Zrotation Yrotation Xrotation
					End Site
					{
						OFFSET 0.000000 0.000000 0.000000
					}
				}
			}
		}
	}
	JOINT Spine
	{
		OFFSET -0.002533 0.108963 -0.026696
		CHANNELS 3 Zrotation Yrotation Xrotation
		JOINT Spine1
		{
			OFFSET 0.005487 0.135180 0.001092
			CHANNELS 3 Zrotation Yrotation Xrotation
			JOINT Spine2
			{
				OFFSET 0.001457 0.052922 0.025425
				CHANNELS 3 Zrotation Yrotation Xrotation
				JOINT Neck
				{
					OFFSET -0.002778 0.213870 -0.042857
					CHANNELS 3 Zrotation Yrotation Xrotation
					JOINT Head
					{
						OFFSET 0.005152 0.064970 0.051349
						CHANNELS 3 Zrotation Yrotation Xrotation
						End Site
						{
							OFFSET 0.000000 0.000000 0.000000
						}
					}
				}
				JOINT LeftShoulder
				{
					OFFSET 0.078845 0.121749 -0.034090
					CHANNELS 3 Zrotation Yrotation Xrotation
					JOINT LeftArm
					{
						OFFSET 0.090977 0.030469 -0.008868
						CHANNELS 3 Zrotation Yrotation Xrotation
						JOINT LeftForeArm
						{
							OFFSET 0.259612 -0.012772 -0.027456
							CHANNELS 3 Zrotation Yrotation Xrotation
							JOINT LeftHand
							{
								OFFSET 0.249234 0.008986 -0.001171
								CHANNELS 3 Zrotation Yrotation Xrotation
								End Site
								{
									OFFSET 0.000000 0.000000 0.000000
								}
							}
						}
					}
				}
				JOINT RightShoulder
				{
					OFFSET -0.081759 0.118833 -0.038615
					CHANNELS 3 Zrotation Yrotation Xrotation
					JOINT RightArm
					{
						OFFSET -0.096012 0.032551 -0.009143
						CHANNELS 3 Zrotation Yrotation Xrotation
						JOINT RightForeArm
						{
							OFFSET -0.253742 -0.013329 -0.021401
							CHANNELS 3 Zrotation Yrotation Xrotation
							JOINT RightHand
							{
								OFFSET -0.255298 0.007772 -0.005559
								CHANNELS 3 Zrotation Yrotation Xrotation
								End Site
								{
									OFFSET 0.000000 0.000000 0.000000
								}
							}
						}
					}
				}
			}
		}
	}
}
MOTION
Frames: 5
Frame Time: 0.050000
-0.832705 0.968242 -0.008491 178.988774 47.224511 -174.561758 9.540214 -8.780349 -26.144343 -31.172748 -15.684252 25.947937 42.285936 11.367980 45.347752 0.000000 0.000000 0.000000 -1.060661 -5.845930 -11.996684 -3.942000 -9.380134 16.049350 6.705233 -2.267197 10.580928 0.000000 0.000000 0.000000 -0.138373 -1.066244 10.773219 -4.842073 -11.240642 2.587643 -4.134530 18.581402 -11.540635 -2.580745 -9.084814 0.180719 0.000000 0.000000 0.000000 -18.050595 -2.859822 -31.796343 -35.858373 18.269417 -6.379067 -31.957795 -21.814159 3.154882 0.000000 0.000000 0.000000 28.786802 -10.506106 24.336733 28.610096 27.934857 -2.179153 -2.488599 30.746333 0.228494 0.000000 0.000000 0.000000 
-0.829919 0.971450 -0.018729 178.283392 43.207208 -174.929472 8.815512 -8.167075 -24.418856 -28.500237 -15.654333 21.138050 50.728689 -3.068109 53.104207 0.000000 0.000000 0.000000 -1.979586 -6.205662 -9.867673 -2.783099 -9.004427 13.743874 3.041415 -5.812895 13.346524 0.000000 0.000000 0.000000 -0.696914 -0.868300 10.286342 -5.340034 -12.500770 2.273688 -4.938846 21.284728 -12.741835 -3.321088 -11.607924 0.409077 0.000000 0.000000 0.000000 -15.844326 -2.673101 -33.263093 -35.554447 21.296768 -8.007473 -33.580859 -19.957691 2.621548 0.000000 0.000000 0.000000 30.389221 -11.802997 27.664180 23.213705 31.111020 -2.820025 -3.401528 33.939916 -0.341243 0.000000 0.000000 0.000000 
-0.828084 0.971391 -0.034294 178.486272 38.196121 -174.715004 6.429472 -7.160154 -22.678177 -20.552389 -13.058043 15.665178 54.366712 -23.017069 54.148538 0.000000 0.000000 0.000000 -2.013051 -5.785061 -6.643320 -0.732702 -8.089043 9.561633 -3.767474 -11.900868 17.404357 0.000000 0.000000 0.000000 -0.157315 -0.817761 9.926612 -4.106567 -13.510454 1.603401 -6.032793 22.300813 -12.038463 -2.519966 -13.236020 -1.390500 0.000000 0.000000 0.000000 -14.735753 -3.085262 -37.922054 -34.022471 26.212345 -9.252294 -35.970783 -17.130105 2.118486 0.000000 0.000000 0.000000 30.078233 -12.797270 30.706874 20.422203 34.976442 -2.789947 -7.572374 35.501981 -1.705153 0.000000 0.000000 0.000000 
-0.827525 0.969107 -0.054987 178.661069 32.632902 -174.189761 3.612192 -6.285169 -21.422120 -13.872049 -10.590198 11.584014 56.280899 -38.080474 50.940935 0.000000 0.000000 0.000000 -3.146879 -6.764799 -4.488132 0.175525 -8.755982 8.474875 -2.331155 -12.518149 18.493590 0.000000 0.000000 0.000000 -0.120874 -0.694025 9.526437 -5.430616 -16.101216 2.151907 -5.335188 25.139389 -13.001324 -2.812921 -14.530191 -3.889595 0.000000 0.000000 0.000000 -13.018548 -4.478771 -43.747517 -31.738562 32.185960 -10.213390 -37.913038 -13.716288 1.203803 0.000000 0.000000 0.000000 29.412608 -13.819406 33.863735 19.607609 36.583941 -2.424721 -12.484856 36.706316 -3.371294 0.000000 0.000000 0.000000 
-0.828629 0.965044 -0.080634 179.101221 28.977751 -173.313620 1.856996 -5.421999 -19.866262 -10.507389 -9.291027 7.531573 58.691251 -50.539670 50.129187 0.000000 0.000000 0.000000 -3.642731 -7.591460 -4.328790 -0.064948 -11.080426 10.769531 -1.246609 -12.862312 18.019253 0.000000 0.000000 0.000000 -0.056822 -0.293965 6.943169 -4.673416 -17.522890 2.578720 -5.064713 26.899176 -11.371665 -3.013577 -16.476580 -5.288466 0.000000 0.000000 0.000000 -10.492313 -5.838510 -51.713094 -28.456390 40.303783 -11.119606 -38.527173 -9.362085 -0.407597 0.000000 0.000000 0.000000 27.667581 -14.530636 38.097253 19.136129 39.801023 -1.494023 -17.264260 34.140025 -4.577219 0.000000 0.000000 0.000000 
